<svg width="226" height="34" viewBox="0 0 226 34" fill="none" xmlns="http://www.w3.org/2000/svg">
<g clip-path="url(#clip0_4573_2856)">
<path fill-rule="evenodd" clip-rule="evenodd" d="M58.2199 3.28625C51.1777 3.28625 45.868 8.59821 45.868 15.3657C45.868 22.1332 51.1777 27.4977 58.2199 27.4977C59.3599 27.4977 60.5073 27.3626 61.6023 27.04L66.1771 32.487L70.2494 28.7356L66.5896 24.384C69.1544 22.0957 70.5719 18.802 70.5719 15.3657C70.5719 8.5907 65.2621 3.28625 58.2199 3.28625ZM58.1749 8.73326C61.9698 8.73326 64.6696 11.7569 64.6696 15.4182C64.6696 19.0796 61.9698 22.1032 58.1749 22.1032C54.3801 22.1032 51.7252 19.0796 51.7252 15.4182C51.7252 11.7569 54.4251 8.73326 58.1749 8.73326Z" fill="white"/>
<path fill-rule="evenodd" clip-rule="evenodd" d="M90.146 3.69885V16.2885C90.146 19.9048 88.1811 22.1031 85.1137 22.1031C82.0464 22.1031 80.0814 19.9048 80.0814 16.3335V3.74387H74.2692V16.1909C74.2692 23.4236 78.4315 27.4976 85.1137 27.4976C91.7959 27.4976 96.0032 23.4236 96.0032 16.1909V3.69885H90.146Z" fill="white"/>
<path fill-rule="evenodd" clip-rule="evenodd" d="M107.35 3.69885L97.4207 27.0399H103.6L105.153 23.056H115.037L116.642 27.0399H122.815L112.93 3.69885H107.35ZM110.095 10.3388L113.162 18.2092H107.035L110.103 10.3388H110.095Z" fill="white"/>
<path fill-rule="evenodd" clip-rule="evenodd" d="M126.017 3.7439V27.085H131.829V14.2703L142.989 27.04H147.473V3.7439H141.706V16.8737L130.457 3.7439H126.017Z" fill="white"/>
<path fill-rule="evenodd" clip-rule="evenodd" d="M150.856 3.7439V8.9133H158.273V27.085H164.033V8.9133H171.487V3.7439H150.856Z" fill="white"/>
<path fill-rule="evenodd" clip-rule="evenodd" d="M190.342 3.69885V16.2885C190.342 19.9048 188.377 22.1031 185.309 22.1031C182.242 22.1031 180.277 19.9048 180.277 16.3335V3.74387H174.465V16.1909C174.465 23.4236 178.627 27.4976 185.309 27.4976C191.991 27.4976 196.199 23.4236 196.199 16.1909V3.69885H190.342Z" fill="white"/>
<path fill-rule="evenodd" clip-rule="evenodd" d="M200.729 3.7439V27.085H206.533L206.488 15.3207L211.708 23.3786V23.4236H214.91V23.3786L220.123 15.3657V27.085H225.89V3.7439H221.585L213.306 16.191L205.026 3.7439H200.729Z" fill="white"/>
<path fill-rule="evenodd" clip-rule="evenodd" d="M16.9493 13.0773C14.8418 13.0773 13.1094 14.8179 13.1094 16.9187C13.1094 19.0195 14.8493 20.8126 16.9493 20.8126C19.0492 20.8126 20.8416 19.072 20.8416 16.9187C20.8416 14.7654 19.1017 13.0773 16.9493 13.0773Z" fill="white"/>
<path fill-rule="evenodd" clip-rule="evenodd" d="M16.9943 6.25732C7.56718 6.25732 2.85738 17.609 9.49459 24.2414C11.662 26.4022 14.3094 27.3776 16.9118 27.3776C22.334 27.3776 27.5238 23.161 27.5238 16.7837C27.5238 10.9691 22.814 6.25732 17.0018 6.25732H16.9943ZM16.8968 8.59818C21.0966 8.59818 25.1314 11.8694 25.1314 16.7837C25.1314 21.3154 21.4716 24.9767 16.9868 24.9767C9.66708 24.9767 6.00724 16.191 11.1745 11.0141C12.8319 9.34096 14.8793 8.59068 16.8893 8.59068L16.8968 8.59818Z" fill="white"/>
<path fill-rule="evenodd" clip-rule="evenodd" d="M16.9492 0C13.8819 0 10.822 0.832806 8.12213 2.50592L9.90705 4.24656C12.1045 2.9861 14.5418 2.35587 16.9717 2.35587C19.4016 2.35587 21.8465 2.9861 24.0364 4.24656L25.7763 2.50592C23.0765 0.832806 20.0091 0 16.9492 0Z" fill="white"/>
<path fill-rule="evenodd" clip-rule="evenodd" d="M2.54239 7.99792C-0.839957 13.3999 -0.839957 20.2199 2.54239 25.6219L4.23732 23.8813C1.71743 19.4846 1.71743 14.0902 4.23732 9.73856L2.54239 7.99792Z" fill="white"/>
<path fill-rule="evenodd" clip-rule="evenodd" d="M31.4536 7.99792L29.7137 9.73856C32.2336 14.0902 32.2336 19.4846 29.7137 23.8813L31.4536 25.6219C34.791 20.2199 34.791 13.3999 31.4536 7.99792Z" fill="white"/>
<path fill-rule="evenodd" clip-rule="evenodd" d="M9.90707 29.741L8.16714 31.4816C10.867 33.1547 13.9344 33.9875 16.9943 33.9875C20.0541 33.9875 23.1215 33.1547 25.8214 31.4816L24.0364 29.741C21.839 31.0014 19.4016 31.6317 16.9718 31.6317C14.5419 31.6317 12.097 31.0014 9.90707 29.741Z" fill="white"/>
</g>
<defs>
<clipPath id="clip0_4573_2856">
<rect width="225.89" height="33.98" fill="white"/>
</clipPath>
</defs>
</svg>
