<svg width="16" height="17" viewBox="0 0 16 17" fill="none" xmlns="http://www.w3.org/2000/svg">
<g id="Icon">
<path id="Vector" d="M2.26658 8.50052C2.26705 9.28351 2.42837 10.0581 2.74055 10.7761C3.05277 11.4943 3.50923 12.1406 4.0816 12.6751L4.4797 13.0468L4.71524 12.5557C4.95227 12.0615 5.3237 11.6441 5.78699 11.3513C6.25007 11.0586 6.7862 10.9022 7.33401 10.9H8.66583C9.21364 10.9022 9.74977 11.0586 10.2128 11.3513C10.6761 11.6441 11.0476 12.0615 11.2846 12.5557L11.5205 13.0475L11.9187 12.6747C12.613 12.0245 13.1347 11.2117 13.4367 10.3096C13.7387 9.40749 13.8115 8.44444 13.6484 7.50722C13.4854 6.56999 13.0918 5.68806 12.503 4.9409C11.9142 4.19373 11.1487 3.60482 10.2755 3.22725C9.40238 2.84967 8.449 2.69528 7.50131 2.77801C6.55362 2.86074 5.64141 3.17798 4.84689 3.70114C4.05237 4.2243 3.40051 4.93693 2.95006 5.77482C2.49966 6.61262 2.26478 7.54932 2.26658 8.50052ZM2.26658 8.50052C2.26658 8.50042 2.26658 8.50033 2.26658 8.50024L2.66658 8.50002L2.26658 8.5008C2.26658 8.5007 2.26658 8.50061 2.26658 8.50052ZM9.08592 15.0694C9.33805 15.0286 9.58758 14.9732 9.83325 14.9034C9.84742 14.8994 9.86159 14.896 9.87581 14.8926L9.87582 14.8926L9.87583 14.8926C9.89506 14.8881 9.91438 14.8835 9.93392 14.8774C10.2071 14.7933 10.4744 14.6911 10.7339 14.5714L9.08592 15.0694ZM4.55857 13.7327L4.54921 13.7257L4.53946 13.7192C3.63577 13.1207 2.90279 12.2979 2.41211 11.3314C1.92143 10.3649 1.68984 9.28763 1.73996 8.20485C1.79007 7.12207 2.12019 6.07081 2.69806 5.15375C3.27592 4.23669 4.08177 3.4852 5.0369 2.97269C5.99202 2.46018 7.06374 2.20417 8.14738 2.22968C9.23102 2.25518 10.2895 2.56133 11.2195 3.11821C12.1494 3.67509 12.919 4.46366 13.4531 5.40689C13.9871 6.35007 14.2674 7.41563 14.2666 8.49951C14.2653 9.5339 14.0079 10.5519 13.5175 11.4626C13.0271 12.3734 12.3188 13.1486 11.456 13.719L11.4461 13.7256L11.4366 13.7327C11.4349 13.7339 11.4333 13.7352 11.4317 13.7364C11.4184 13.7433 11.3936 13.7565 11.3682 13.7727C11.1661 13.9016 10.9569 14.019 10.7416 14.1243C10.7198 14.1349 10.7004 14.1444 10.6825 14.1532C10.6423 14.173 10.6094 14.1891 10.5726 14.2053L10.5725 14.2053L10.5664 14.2081C10.323 14.3204 10.0724 14.4162 9.81631 14.495L9.81418 14.4957C9.81139 14.4966 9.8061 14.498 9.79043 14.5018C9.78882 14.5022 9.78695 14.5026 9.78486 14.5031C9.77122 14.5063 9.74809 14.5118 9.7254 14.5182L9.72389 14.5186C9.49319 14.5842 9.25887 14.6362 9.0221 14.6745L9.0221 14.6745L9.01784 14.6752C8.94578 14.6876 8.88026 14.6984 8.81608 14.7066L8.81608 14.7065L8.81154 14.7072C8.54251 14.7445 8.27135 14.7644 7.99975 14.7667C7.7267 14.7646 7.45408 14.7447 7.18362 14.7072L7.18362 14.7071L7.17909 14.7066C7.11491 14.6984 7.04939 14.6876 6.97733 14.6752L6.97733 14.6752L6.97306 14.6745C6.7363 14.6362 6.50198 14.5842 6.27128 14.5186L6.27128 14.5186L6.26781 14.5176C6.24605 14.5117 6.22295 14.5062 6.20977 14.5032C6.20734 14.5026 6.20524 14.5021 6.20356 14.5017C6.18943 14.4983 6.18567 14.4972 6.18541 14.4971L6.18543 14.4971L6.17886 14.495C5.92272 14.4162 5.67215 14.3204 5.42881 14.2081L5.42884 14.2081L5.42261 14.2053C5.38577 14.1891 5.35291 14.173 5.31273 14.1532C5.29478 14.1444 5.27538 14.1349 5.25351 14.1243C5.03823 14.019 4.82905 13.9016 4.62695 13.7727C4.60152 13.7565 4.57675 13.7433 4.56347 13.7364C4.56187 13.7352 4.56024 13.7339 4.55857 13.7327ZM11.3868 13.7762C11.386 13.7769 11.3868 13.7761 11.3878 13.7751L11.3868 13.7762ZM4.60841 13.7762L4.60733 13.7751L4.60841 13.7762ZM10.0359 13.8536L10.036 13.8538L10.0451 13.8501C10.0472 13.8492 10.0485 13.8488 10.0536 13.847C10.0566 13.8459 10.0612 13.8443 10.0681 13.8417C10.0798 13.8375 10.0993 13.8304 10.1215 13.8208C10.3317 13.7386 10.5366 13.6438 10.7354 13.537L11.0336 13.3766L10.9247 13.056C10.7644 12.5842 10.4608 12.1742 10.0562 11.8833C9.65161 11.5924 9.16627 11.4351 8.66796 11.4334H8.66658L7.33325 11.4333L7.33179 11.4334C6.83328 11.4352 6.3478 11.5927 5.94319 11.8839C5.53858 12.1751 5.23507 12.5855 5.07508 13.0576L4.96649 13.3781L5.26448 13.5383C5.46534 13.6463 5.6726 13.742 5.8851 13.8248C5.90498 13.8327 5.92389 13.8392 5.93453 13.8429L5.93638 13.8436C5.94991 13.8483 5.95308 13.8494 5.95469 13.8501L5.95464 13.8502L5.96393 13.8536C7.27738 14.3417 8.72245 14.3417 10.0359 13.8536ZM9.25921 9.05135C8.88646 9.30041 8.44822 9.43335 7.99992 9.43335C7.39876 9.43335 6.82222 9.19454 6.39714 8.76946C5.97206 8.34438 5.73325 7.76784 5.73325 7.16669C5.73325 6.71838 5.86619 6.28014 6.11525 5.90739C6.36432 5.53464 6.71832 5.24412 7.1325 5.07256C7.54668 4.901 8.00243 4.85611 8.44212 4.94357C8.88181 5.03103 9.28569 5.24691 9.60269 5.56391C9.91969 5.88091 10.1356 6.28479 10.223 6.72448C10.3105 7.16417 10.2656 7.61992 10.094 8.0341C9.92249 8.44828 9.63196 8.80229 9.25921 9.05135ZM8.96291 5.72547C8.67786 5.53501 8.34274 5.43335 7.99992 5.43335C7.54021 5.43335 7.09933 5.61597 6.77427 5.94103C6.4492 6.2661 6.26658 6.70698 6.26658 7.16669C6.26658 7.50951 6.36824 7.84463 6.5587 8.12967C6.74916 8.41472 7.01987 8.63688 7.3366 8.76808C7.65333 8.89927 8.00184 8.93359 8.33807 8.86671C8.67431 8.79983 8.98316 8.63475 9.22557 8.39234C9.46798 8.14993 9.63306 7.84108 9.69995 7.50484C9.76683 7.16861 9.7325 6.82009 9.60131 6.50337C9.47012 6.18664 9.24795 5.91593 8.96291 5.72547Z" fill="#6B7280" stroke="#6B7280" stroke-width="0.8"/>
</g>
</svg>
