<svg xmlns="http://www.w3.org/2000/svg" width="12" height="12" viewBox="0 0 12 12">
<path d="M6.4936 5.78787L6.28147 6L6.4936 6.21213L9.1332 8.85173C9.16859 8.88912 9.18814 8.9388 9.1877 8.99034C9.18724 9.04255 9.1663 9.09249 9.12938 9.12941L9.34151 9.34154L9.12938 9.12941C9.09246 9.16633 9.04252 9.18727 8.99031 9.18773C8.93877 9.18817 8.88909 9.16862 8.8517 9.13323L6.2121 6.49363L5.99997 6.2815L5.78784 6.49363L3.14597 9.13549L3.14594 9.13546L3.14232 9.13921C3.12395 9.15823 3.10198 9.1734 3.07769 9.18383L3.19609 9.45948L3.07768 9.18383C3.05339 9.19427 3.02726 9.19976 3.00082 9.19999C2.97438 9.20022 2.94816 9.19518 2.92369 9.18517C2.89922 9.17516 2.87699 9.16037 2.85829 9.14168C2.8396 9.12298 2.82481 9.10075 2.8148 9.07628C2.80479 9.05181 2.79975 9.02559 2.79998 8.99915C2.80021 8.97271 2.8057 8.94658 2.81614 8.92228C2.82657 8.89799 2.84174 8.87602 2.86076 8.85765L2.86079 8.85768L2.86448 8.85399L5.50634 6.21213L5.71847 6L5.50634 5.78787L2.86674 3.14826C2.83135 3.11087 2.8118 3.0612 2.81224 3.00966C2.8127 2.95745 2.83364 2.90751 2.87056 2.87059C2.90748 2.83367 2.95742 2.81273 3.00963 2.81227C3.06117 2.81183 3.11084 2.83138 3.14823 2.86677L5.78784 5.50637L5.99997 5.7185L6.2121 5.50637L8.85396 2.86451L8.85399 2.86454L8.85762 2.86079C8.87599 2.84177 8.89796 2.8266 8.92225 2.81617C8.94655 2.80573 8.97268 2.80024 8.99911 2.80001C9.02555 2.79978 9.05177 2.80482 9.07625 2.81483C9.10072 2.82484 9.12295 2.83963 9.14165 2.85832C9.16034 2.87702 9.17513 2.89925 9.18514 2.92372C9.19515 2.94819 9.20019 2.97441 9.19996 3.00085C9.19973 3.02729 9.19424 3.05342 9.1838 3.07772L9.45945 3.19612L9.1838 3.07772C9.17337 3.10201 9.1582 3.12398 9.13918 3.14235L9.13915 3.14232L9.13546 3.14601L6.4936 5.78787Z" stroke-width="0.6"/>
</svg>
